<svg width="32.000000" height="32.000000" viewBox="0 0 32 32" fill="none" xmlns="http://www.w3.org/2000/svg" xmlns:xlink="http://www.w3.org/1999/xlink">
	<desc>
			Created with Pixso.
	</desc>
	<defs>
		<clipPath id="clip1_162">
			<rect id="Frame" rx="-0.500000" width="31.000000" height="31.000000" transform="translate(0.500000 0.500000)" fill="white" fill-opacity="0"/>
		</clipPath>
	</defs>
	<rect id="Frame" rx="-0.500000" width="31.000000" height="31.000000" transform="translate(0.500000 0.500000)" fill="#FFFFFF" fill-opacity="0"/>
	<g clip-path="url(#clip1_162)">
		<path id="Vector" d="M 20.38 26.27 C 20.63 26.52 20.97 26.66 21.33 26.66 C 21.68 26.66 22.02 26.52 22.27 26.27 L 24.94 23.6 C 25.46 23.08 25.46 22.24 24.94 21.72 C 24.42 21.2 23.57 21.2 23.05 21.72 L 22.66 22.11 C 23 20 26 15 23 8 C 22.66 6.99 22.06 6.39 21.33 6.39 C 20.59 6.39 19.99 6.99 19.99 7.73 C 22 11 23 16 19.99 22.11 L 19.6 21.72 C 19.08 21.2 18.24 21.2 17.72 21.72 C 17.2 22.24 17.2 23.08 17.72 23.6 L 20.38 26.27 Z" fill="red" fill-opacity="1.000000" fill-rule="nonzero"/>
		<path id="Vector" d="M 11.61 6.78 C 11.36 6.53 11.02 6.39 10.66 6.39 C 10.31 6.39 9.97 6.53 9.72 6.78 L 7.05 9.45 C 6.53 9.97 6.53 10.82 7.05 11.34 C 7.57 11.86 8.42 11.86 8.94 11.34 L 9.33 10.95 C 8 15 7 19 9.33 25.86 C 9.33 26.6 9.93 27.19 10.66 27.19 C 11.4 27.19 12 26.6 12 25.86 C 10 20 10 15 12 10.95 L 12.39 11.34 C 12.91 11.86 13.75 11.86 14.27 11.34 C 14.79 10.82 14.79 9.97 14.27 9.45 L 11.61 6.78 Z" fill="black" fill-opacity="1.000000" fill-rule="nonzero"/>
	</g>
</svg>
